<?xml version="1.0" encoding="UTF-8" standalone="no"?>
<svg width="114px" height="44px" viewBox="0 0 114 44" version="1.1" xmlns="http://www.w3.org/2000/svg" xmlns:xlink="http://www.w3.org/1999/xlink">
    <!-- Generator: Sketch 3.8.3 (29802) - http://www.bohemiancoding.com/sketch -->
    <title>logo 4p</title>
    <desc>Created with Sketch.</desc>
    <defs>
        <polygon id="path-1" points="39.8775863 0.131856729 0.119874125 0.131856729 0.119874125 42.0461945 39.8775863 42.0461945 39.8775863 0.131856729"></polygon>
        <polygon id="path-3" points="113.757447 0.0669720613 113.757447 21.2824857 0 21.2824857 0 11.8442219 0 2.405958 113.757447 2.405958"></polygon>
    </defs>
    <g id="Page-1" stroke="none" stroke-width="1" fill="none" fill-rule="evenodd" opacity="0.799032183">
        <g id="Desktop" transform="translate(-370.000000, -2107.000000)">
            <g id="logo-4p" transform="translate(370.054127, 2107.508507)">
                <g id="Group-3" transform="translate(1.618046, 0.117400)">
                    <mask id="mask-2" fill="white">
                        <use xlink:href="#path-1"></use>
                    </mask>
                    <g id="Clip-1"></g>
                    <text id="4P" mask="url(#mask-2)" font-family="GothamBlack, Gotham Black" font-size="29.0312919" font-weight="700" fill="#FEFEFE">
                        <tspan x="0.119874125" y="19.8762112">4P</tspan>
                    </text>
                    <path d="M4.48792914,36.6901944 C4.83465337,36.6901944 5.10648517,36.6017083 5.30319339,36.4244869 C5.4999016,36.2475147 5.59814014,36.0069821 5.59814014,35.7033876 L5.59814014,35.6817023 C5.59814014,35.3564225 5.4999016,35.1086614 5.30319339,34.9386684 C5.10648517,34.7689247 4.83141728,34.6839282 4.47798971,34.6839282 L3.56772302,34.6839282 L3.56772302,36.6901944 L4.48792914,36.6901944 Z M1.62722306,32.9363904 L4.62800573,32.9363904 C5.06811436,32.9363904 5.46823412,32.9959627 5.82836503,33.1146088 C6.18849593,33.2330057 6.49500016,33.4057405 6.74857115,33.6323147 C7.00191099,33.8586397 7.19700116,34.1375578 7.3336105,34.4683213 C7.47021985,34.7990848 7.53887125,35.1729696 7.53887125,35.5899759 L7.53887125,35.6114119 C7.53887125,36.0575812 7.46374767,36.4494125 7.31373165,36.7871552 C7.16371563,37.1253964 6.95521879,37.4092996 6.68847228,37.6393634 C6.42172577,37.8696765 6.10343292,38.0421621 5.73336259,38.1570693 C5.36306111,38.2722259 4.96132329,38.3298042 4.527918,38.3298042 L3.56772302,38.3298042 L3.56772302,40.4868706 L1.62722306,40.4868706 L1.62722306,32.9363904 Z" id="Fill-2" fill="#FEFEFE" mask="url(#mask-2)"></path>
                </g>
                <text id="PRIMERA" font-family="GothamBlack, Gotham Black" font-size="7.64598836" font-weight="700" fill="#FEFEFE">
                    <tspan x="48.3692789" y="9.93148379">PRIMERA</tspan>
                </text>
                <text id="PRODUCTORA" font-family="GothamBlack, Gotham Black" font-size="7.64598836" font-weight="700" fill="#FEFEFE">
                    <tspan x="48.3692789" y="19.8498117">PRODUCTORA</tspan>
                </text>
                <g id="Group-12" transform="translate(0.000000, 21.362112)">
                    <mask id="mask-4" fill="white">
                        <use xlink:href="#path-3"></use>
                    </mask>
                    <g id="Clip-4"></g>
                    <text id="PARAGUAYA-DE" mask="url(#mask-4)" font-family="GothamBlack, Gotham Black" font-size="7.64598836" font-weight="700" fill="#FEFEFE">
                        <tspan x="48.3692789" y="8.405958">PARAGUAYA DE</tspan>
                    </text>
                    <text id="PLASTICOS-S.A." mask="url(#mask-4)" font-family="GothamBlack, Gotham Black" font-size="7.64598836" font-weight="700" fill="#FEFEFE">
                        <tspan x="48.3692789" y="18.3242859">PLASTICOS S.A.</tspan>
                    </text>
                    <path d="M5.99093246,8.87611353 C2.95039208,8.87611353 0.476630247,11.5434082 0.476630247,14.8223784 C0.476630247,18.1010994 2.95039208,20.768394 5.99093246,20.768394 C9.03147285,20.768394 11.5052347,18.1010994 11.5052347,14.8223784 C11.5052347,11.5434082 9.03147285,8.87611353 5.99093246,8.87611353 M5.99093246,21.2826104 C2.68757511,21.2826104 0,18.3845041 0,14.8223784 C0,11.2600034 2.68757511,8.36214647 5.99093246,8.36214647 C9.29428982,8.36214647 11.9818649,11.2600034 11.9818649,14.8223784 C11.9818649,18.3845041 9.29428982,21.2826104 5.99093246,21.2826104" id="Fill-5" fill="#FEFEFE" mask="url(#mask-4)"></path>
                    <path d="M15.8991091,14.6658204 C16.2458333,14.6658204 16.5176651,14.5773343 16.7143733,14.4001129 C16.9110816,14.2231407 17.0093201,13.9826081 17.0093201,13.6790136 L17.0093201,13.6573283 C17.0093201,13.3320484 16.9110816,13.0842874 16.7143733,12.9142944 C16.5176651,12.7445507 16.2425972,12.6595542 15.8891697,12.6595542 L14.978903,12.6595542 L14.978903,14.6658204 L15.8991091,14.6658204 Z M13.038403,10.9120163 L16.0391857,10.9120163 C16.4792943,10.9120163 16.8794141,10.9715886 17.239545,11.0902348 C17.5996759,11.2086316 17.9061801,11.3813665 18.1597511,11.6079407 C18.4130909,11.8342657 18.6081811,12.1131838 18.7447905,12.4439472 C18.8813998,12.7747107 18.9500512,13.1485956 18.9500512,13.5656018 L18.9500512,13.5870379 C18.9500512,14.0332072 18.8749276,14.4250385 18.7249116,14.7627812 C18.5748956,15.1010223 18.3663987,15.3849256 18.0996522,15.6149894 C17.8329057,15.8453025 17.5146129,16.017788 17.1445425,16.1326953 C16.7742411,16.2478519 16.3725032,16.3054301 15.939098,16.3054301 L14.978903,16.3054301 L14.978903,18.4624965 L13.038403,18.4624965 L13.038403,10.9120163 Z" id="Fill-6" fill="#FEFEFE" mask="url(#mask-4)"></path>
                    <path d="M15.7840198,8.87611353 C12.7434794,8.87611353 10.2697175,11.5434082 10.2697175,14.8223784 C10.2697175,18.1010994 12.7434794,20.768394 15.7840198,20.768394 C18.8245601,20.768394 21.298322,18.1010994 21.298322,14.8223784 C21.298322,11.5434082 18.8245601,8.87611353 15.7840198,8.87611353 M15.7840198,21.2826104 C12.4806624,21.2826104 9.7930873,18.3845041 9.7930873,14.8223784 C9.7930873,11.2600034 12.4806624,8.36214647 15.7840198,8.36214647 C19.0873771,8.36214647 21.7749522,11.2600034 21.7749522,14.8223784 C21.7749522,18.3845041 19.0873771,21.2826104 15.7840198,21.2826104" id="Fill-7" fill="#FEFEFE" mask="url(#mask-4)"></path>
                    <path d="M25.6921964,14.6658204 C26.0389206,14.6658204 26.3107524,14.5773343 26.5074606,14.4001129 C26.7041689,14.2231407 26.8024074,13.9826081 26.8024074,13.6790136 L26.8024074,13.6573283 C26.8024074,13.3320484 26.7041689,13.0842874 26.5074606,12.9142944 C26.3107524,12.7445507 26.0356845,12.6595542 25.682257,12.6595542 L24.7719903,12.6595542 L24.7719903,14.6658204 L25.6921964,14.6658204 Z M22.8314903,10.9120163 L25.832273,10.9120163 C26.2723816,10.9120163 26.6725014,10.9715886 27.0326323,11.0902348 C27.3927632,11.2086316 27.6992674,11.3813665 27.9528384,11.6079407 C28.2061782,11.8342657 28.4012684,12.1131838 28.5378778,12.4439472 C28.6747183,12.7747107 28.7431385,13.1485956 28.7431385,13.5656018 L28.7431385,13.5870379 C28.7431385,14.0332072 28.6680149,14.4250385 28.5179989,14.7627812 C28.3679829,15.1010223 28.159486,15.3849256 27.8927395,15.6149894 C27.625993,15.8453025 27.3077002,16.017788 26.9376298,16.1326953 C26.5673284,16.2478519 26.1655905,16.3054301 25.7321853,16.3054301 L24.7719903,16.3054301 L24.7719903,18.4624965 L22.8314903,18.4624965 L22.8314903,10.9120163 Z" id="Fill-8" fill="#FEFEFE" mask="url(#mask-4)"></path>
                    <path d="M25.5771533,8.87611353 C22.5366129,8.87611353 20.0628511,11.5434082 20.0628511,14.8223784 C20.0628511,18.1010994 22.5366129,20.768394 25.5771533,20.768394 C28.6176937,20.768394 31.0914555,18.1010994 31.0914555,14.8223784 C31.0914555,11.5434082 28.6176937,8.87611353 25.5771533,8.87611353 M25.5771533,21.2826104 C22.2737959,21.2826104 19.5862208,18.3845041 19.5862208,14.8223784 C19.5862208,11.2600034 22.2737959,8.36214647 25.5771533,8.36214647 C28.8805106,8.36214647 31.5680858,11.2600034 31.5680858,14.8223784 C31.5680858,18.3845041 28.8805106,21.2826104 25.5771533,21.2826104" id="Fill-9" fill="#FEFEFE" mask="url(#mask-4)"></path>
                    <path d="M35.122587,14.6658204 C35.4693113,14.6658204 35.7411431,14.5773343 35.9378513,14.4001129 C36.1345595,14.2231407 36.232798,13.9826081 36.232798,13.6790136 L36.232798,13.6573283 C36.232798,13.3320484 36.1345595,13.0842874 35.9378513,12.9142944 C35.7411431,12.7445507 35.4660752,12.6595542 35.1126476,12.6595542 L34.2023809,12.6595542 L34.2023809,14.6658204 L35.122587,14.6658204 Z M32.261881,10.9120163 L35.2626636,10.9120163 C35.7027722,10.9120163 36.102892,10.9715886 36.4630229,11.0902348 C36.8231538,11.2086316 37.129658,11.3813665 37.383229,11.6079407 C37.6365689,11.8342657 37.831659,12.1131838 37.9682684,12.4439472 C38.1051089,12.7747107 38.1735291,13.1485956 38.1735291,13.5656018 L38.1735291,13.5870379 C38.1735291,14.0332072 38.0984056,14.4250385 37.9483895,14.7627812 C37.7983735,15.1010223 37.5898767,15.3849256 37.3231302,15.6149894 C37.0563837,15.8453025 36.7380908,16.017788 36.3680205,16.1326953 C35.997719,16.2478519 35.5959812,16.3054301 35.1625759,16.3054301 L34.2023809,16.3054301 L34.2023809,18.4624965 L32.261881,18.4624965 L32.261881,10.9120163 Z" id="Fill-10" fill="#FEFEFE" mask="url(#mask-4)"></path>
                    <path d="M35.0075208,8.87611353 C31.9669804,8.87611353 29.4932186,11.5434082 29.4932186,14.8223784 C29.4932186,18.1010994 31.9669804,20.768394 35.0075208,20.768394 C38.0480612,20.768394 40.521823,18.1010994 40.521823,14.8223784 C40.521823,11.5434082 38.0480612,8.87611353 35.0075208,8.87611353 M35.0075208,21.2826104 C31.7041635,21.2826104 29.0165884,18.3845041 29.0165884,14.8223784 C29.0165884,11.2600034 31.7041635,8.36214647 35.0075208,8.36214647 C38.3108782,8.36214647 40.9984533,11.2600034 40.9984533,14.8223784 C40.9984533,18.3845041 38.3108782,21.2826104 35.0075208,21.2826104" id="Fill-11" fill="#FEFEFE" mask="url(#mask-4)"></path>
                </g>
            </g>
        </g>
    </g>
</svg>