<?xml version="1.0" encoding="UTF-8" standalone="no"?>
<svg width="66px" height="45px" viewBox="0 0 66 45" version="1.1" xmlns="http://www.w3.org/2000/svg" xmlns:xlink="http://www.w3.org/1999/xlink">
    <!-- Generator: Sketch 3.8.3 (29802) - http://www.bohemiancoding.com/sketch -->
    <title>logo cafe mayo</title>
    <desc>Created with Sketch.</desc>
    <defs>
        <polygon id="path-1" points="4.2984159 0.484949751 0.674580379 0.484949751 0.674580379 7.06872737 4.2984159 7.06872737 4.2984159 0.484949751"></polygon>
    </defs>
    <g id="Page-1" stroke="none" stroke-width="1" fill="none" fill-rule="evenodd" opacity="0.735121269">
        <g id="Desktop" transform="translate(-560.000000, -2011.000000)">
            <g id="logo-cafe-mayo" transform="translate(560.222373, 2010.830422)">
                <path d="M0.058420839,43.9875153 C0.038947226,36.6017774 0.019473613,29.2152598 0,21.8295219 C1.95529499,20.8806732 3.99569689,21.5137588 5.99715156,21.4794536 C6.4811069,21.471657 6.57342625,22.0353526 6.70469283,22.4805396 C7.21028552,24.1996943 7.84714479,25.8728489 8.11184168,27.6723087 C8.22363464,28.4309198 8.41115832,29.4748872 9.15548309,29.5068534 C9.88466171,29.5380398 9.80243978,28.4449538 10.0274682,27.8071903 C10.7191421,25.8440014 10.5013261,23.5525748 11.8716915,21.8334202 C12.688862,21.5168774 13.5384885,21.6229114 14.3736901,21.637725 C17.2889621,21.688403 18.124885,22.5967092 18.1299337,25.7075605 C18.1385886,30.7730244 18.1429161,35.8384883 18.1270487,40.9047318 C18.1205575,43.0558192 17.6308322,43.8736847 16.3744235,43.9633458 C15.0862801,44.0561256 13.7274547,42.648056 13.5976306,40.9444946 C13.4735765,39.3274757 13.5262273,37.7003211 13.5933031,36.0770649 C13.6127767,35.5882168 13.8442963,35.0447924 13.363226,34.6128597 C12.5316306,34.775809 12.3982003,35.5835388 12.2965047,36.2158447 C11.9719445,38.2468642 10.9816752,40.0424257 10.6253802,42.0586316 C10.4969986,42.7844969 9.90125034,43.1181922 9.25573613,43.0682938 C8.23950203,42.989548 7.42088904,42.2551064 7.39708796,41.2696136 C7.34443708,39.1037127 6.09812585,37.4001512 5.74183085,35.3784877 C5.64518403,34.8327243 5.39346955,34.3571305 4.82512855,34.3477746 C4.13633965,34.3360797 3.9365548,34.951233 3.83990798,35.5305218 C3.62569824,36.8161844 3.7519161,38.1213386 3.72739378,39.4186961 C3.71224763,40.2622904 3.76706225,41.1113423 3.65166306,41.9479196 C3.33864276,44.2136173 2.06492422,44.929347 0.058420839,43.9875153" id="Fill-1" fill="#FEFEFE"></path>
                <path d="M45.3897463,35.0078364 C44.2126746,37.3273308 45.0190264,39.8448593 44.758657,42.2555742 C44.6771563,43.0134056 45.2043863,44.2226614 44.1001604,44.3715768 C42.768021,44.5516787 41.3377923,44.8081875 40.0482064,44.1392375 C39.6046407,43.9100169 39.7185974,43.1802533 39.7856732,42.6859476 C40.5054756,37.3881445 38.6857747,32.8325795 36.3316313,28.3963028 C35.474071,26.7816229 34.8372118,25.0312817 34.0784621,23.3542288 C33.5872943,22.2704987 33.67168,21.6187013 34.987952,21.6763962 C35.8866231,21.716159 36.7896218,21.7239556 37.6868505,21.6748369 C38.6742348,21.6202606 39.2274296,22.1176849 39.6010345,23.0673132 C40.206159,24.6024677 40.8523945,26.1204695 41.552002,27.6065053 C41.7380832,28.0025735 41.6371089,28.8368119 42.3194066,28.6886761 C42.765136,28.591998 43.0017043,28.0251837 43.186343,27.5238611 C43.6912145,26.149317 44.2148383,24.7817899 44.7572145,23.4236187 C45.3414229,21.9625322 48.9822673,20.8780224 50.1665514,21.822193 C50.795477,22.3235157 50.3093579,22.8638214 50.1095731,23.3620254 C49.0204932,26.0713508 47.9198735,28.7767779 46.8235812,31.4829846 C46.3482808,32.6594945 45.8765866,33.8367841 45.3897463,35.0078364" id="Fill-3" fill="#FEFEFE"></path>
                <path d="M11.8213486,22.135929 C13.6590806,21.300911 15.5739859,21.8840982 17.4513865,21.803793 C18.1726314,21.7726065 18.2512471,22.4563701 18.2498046,23.0676251 C18.2368222,29.6191247 18.2375434,36.1706243 18.1928263,42.7221239 C18.1740739,45.5031782 16.1589156,44.1068036 14.994105,44.371109 C13.6259034,44.6821941 13.6345583,43.6047013 13.6460982,42.5599542 C13.6706206,40.3753414 13.6533107,38.1899488 13.4816544,35.9655732 C11.9331415,37.9248638 11.6496923,40.433816 10.871469,42.6995137 C10.515174,43.7372438 10.2230698,44.3804649 9.08350284,44.4225667 C7.81627551,44.4701261 7.62153938,43.4916503 7.34458133,42.5958187 C6.79499269,40.8220877 6.31392233,39.0241871 5.80111719,37.2372019 C5.70086414,36.8894727 5.74702382,36.3296753 5.27028092,36.3772347 C4.72429851,36.4310314 4.76252449,37.0220152 4.75747578,37.4516089 C4.73655968,39.1380178 4.67092639,40.830664 4.76973694,42.5100559 C4.85340135,43.9430746 4.4271456,44.5605669 3.05461651,44.4132108 C2.04415237,44.3040581 1.01926333,44.3453802 0.000865493911,44.3196513 C0.00302922869,44.2058207 0.0225028417,44.0951087 0.058565088,43.9875153 C3.02576671,43.9851763 3.21329039,43.7832439 3.21689662,40.5835111 C3.21906035,38.9633735 3.17506441,37.3408969 3.23492774,35.7223187 C3.27387497,34.6705547 3.44553126,33.4628583 4.73223221,33.5260109 C5.8847816,33.5829262 6.56852179,34.3236051 6.32113478,35.7620814 C6.13938106,36.8185234 6.97963139,37.7509991 7.36693992,38.3716101 C8.13939323,39.610493 7.04887091,41.2820882 8.45818349,42.1950724 C8.86785061,42.4609372 9.10730392,42.9108021 9.66698999,42.6348018 C10.1725827,42.3860896 10.4105935,42.0898181 10.1855651,41.4333427 C9.80763275,40.3340193 10.8476679,39.5917811 11.0640414,38.6031697 C11.3510969,37.2956765 11.5588154,35.7558441 12.2382281,34.4717409 C12.5844257,33.8176045 12.9623581,33.4464853 13.6446558,33.6772653 C14.3637369,33.9205198 14.4899548,34.5068256 14.2894487,35.2295723 C13.7593337,37.1374052 14.1343811,39.0920177 14.0478317,41.0224608 C13.9930171,42.2441911 14.8563472,42.8889716 15.6504379,43.4144638 C16.5245867,43.9929729 17.6187153,43.2429381 17.6252065,42.0664282 C17.6583838,36.1035734 17.6641537,30.1399389 17.6259277,24.1763044 C17.6158303,22.5413532 16.2945096,22.3659293 15.2335583,22.198302 C14.1177924,22.0213187 12.9601943,22.1437256 11.8213486,22.135929" id="Fill-5" fill="#FEFEFE"></path>
                <path d="M35.616589,10.787715 C35.7550681,10.6762233 35.8935471,10.5647317 36.0327474,10.45324 C37.6000126,9.60418813 37.9267365,7.89984704 38.3587622,6.32726883 C38.5809057,5.51797969 39.0576486,4.83343647 39.1802602,3.98828289 C39.2271411,3.66940114 39.4867893,3.3707906 39.8192832,3.43004491 C40.2664551,3.5103501 40.2736675,3.94540148 40.2787162,4.33757146 C40.1820694,5.04160622 39.6209409,5.66611547 39.9693022,6.4488961 C40.1027325,6.7584219 40.2354415,7.06716804 40.2152467,7.42035492 C39.9786783,8.19533893 39.2076675,8.55632243 38.9552318,9.3196115 C38.9451344,9.43889979 38.9314307,9.55818807 38.9148421,9.67669669 C38.6011005,10.0407988 38.7619382,10.5257486 38.6422115,10.9467661 C38.4619003,11.5845296 38.0854104,12.2807677 39.3194605,12.2932423 C39.9873333,12.3002592 39.6130072,12.8904634 39.2927744,13.2046671 L39.2920532,13.2046671 C37.9404402,13.9671766 37.4160951,15.1717543 37.651221,16.7840953 C37.6988231,17.4522656 37.3533468,17.877961 36.867949,18.1796902 C36.0709733,18.6747756 35.3619896,18.6498264 35.5509558,17.4210791 C35.8199801,15.6715176 35.1809571,15.5202632 33.8892074,16.007552 C33.5213725,16.1455521 32.9688989,16.7911123 32.6941046,16.0317215 C32.4517663,15.3596529 33.1037717,15.0758559 33.5624835,14.7897199 C34.1445281,14.5113806 34.727294,14.2330413 35.3093387,13.954702 C35.9180694,13.7098881 35.83729,13.0783619 35.9678353,12.5692426 C36.1128055,11.9151062 35.160041,11.5104617 35.616589,10.787715" id="Fill-7" fill="#FEFEFE"></path>
                <path d="M14.3324349,16.3402337 C13.3190858,14.6662995 13.4654985,12.6259241 14.8279302,10.6736505 C15.5022942,9.70764927 16.2285878,8.76971591 17.1611575,8.06100317 C17.866535,8.05554554 18.3865526,6.62096749 18.9613848,7.38035826 C19.47419,8.05710486 18.3216406,8.53737664 17.9804917,9.15642825 C17.4337881,10.1481583 16.80342,11.0868713 16.3858192,12.1581269 C16.0569315,13.8156882 15.4669532,15.5348429 17.2953091,16.6864036 L17.2888179,16.680946 C17.6768476,17.2423026 18.9152252,16.4470474 18.7817949,17.5019301 C18.6490858,18.5536941 17.5960682,18.0484731 16.9952712,18.0055917 C15.9097976,17.9276255 14.9786704,17.347557 14.3324349,16.3402337" id="Fill-9" fill="#FEFEFE"></path>
                <path d="M16.2320498,12.0440623 C16.8177007,10.3981959 17.7293543,8.97765176 18.9576344,7.57815851 C18.1794111,7.37466673 17.8007575,8.37497305 17.1617345,8.06076927 C18.2378319,6.72442864 19.6796005,6.10849568 21.2273922,5.83483432 C22.5559253,5.60015606 23.7625681,5.91124119 24.2436384,7.52670082 C24.7073989,9.08446545 24.0553935,10.3147721 23.0809916,11.3431462 C22.5984788,11.8530451 21.9746019,11.70335 21.465403,11.2004681 C20.8581147,10.6016877 20.6626574,9.95222923 21.1603164,9.14839773 C21.5079564,8.58626145 22.2284801,7.92198944 21.6767277,7.30371749 C20.9605315,6.50222497 20.2385654,7.39025997 19.619016,7.79178589 C18.1101716,8.77026167 17.5173083,10.5463317 16.6034909,12.0409437 C16.4808793,12.2124693 16.3568252,12.2054524 16.2320498,12.0440623" id="Fill-11" fill="#FEFEFE"></path>
                <path d="M24.1024908,13.9075324 C25.7822702,11.9841063 27.1865341,9.74413745 29.4317696,8.46705113 C30.1659969,8.19105079 30.4984908,8.36881372 30.2006166,9.26074702 C29.9849644,9.66617125 29.6690591,9.98115469 29.3762337,10.3156297 C28.938438,11.1490883 27.630821,11.6106482 28.4249116,12.9586838 C28.8360212,13.260413 29.3993135,13.4272606 29.3286315,14.1500073 C28.3520659,15.0707881 27.2802959,15.4972632 26.0866356,14.6918724 C25.5233433,14.312177 25.074729,14.6201435 24.5568751,14.7222792 C23.902706,14.8509234 23.8702499,14.4322449 24.1024908,13.9075324" id="Fill-13" fill="#FEFEFE"></path>
                <path d="M24.1024908,13.9075324 C24.21789,14.1071259 24.3332892,14.3067194 24.4486884,14.5063128 C25.2535977,13.9028544 25.9164218,14.2903465 26.7278223,14.6528893 C27.5392229,15.0162118 28.511461,14.8096013 29.1988074,13.9886173 C29.3206978,13.8576341 29.4570131,13.8303459 29.6091958,13.9239053 C29.7036789,14.0829564 29.6914177,14.2326515 29.5731336,14.3714313 C28.4090442,15.1526526 27.2846234,16.1061792 25.8580009,14.8891269 C25.1951769,14.3238719 24.7819035,15.0255677 24.3246342,15.3920088 C22.6852445,16.7049596 20.9831065,17.864317 18.917461,18.2557073 C16.8741742,18.6431993 15.230457,17.9812663 14.332507,16.3400778 C15.5845882,17.2897061 16.8424394,18.2120462 18.5510686,17.6499099 C18.3267614,16.8640106 17.4324177,17.3918418 17.28889,16.6807901 C20.0966965,17.2975027 22.1940767,15.8730603 24.1024908,13.9075324" id="Fill-15" fill="#FEFEFE"></path>
                <path d="M29.5211318,13.9618749 C29.4129451,13.9610952 29.3054796,13.9696715 29.1987353,13.9883834 C28.8323429,13.7459085 28.4659505,13.5034336 28.0988368,13.2609587 C28.6895364,12.2442795 29.3494755,11.2845156 30.0966853,10.3941416 C30.6686325,9.91075122 30.9939139,8.82000411 31.9149437,9.17786896 C32.6917245,9.47959814 32.9809437,10.3629552 32.9470452,11.2252613 C32.9008855,12.3916356 33.6004931,12.1928218 34.2395161,12.1709913 C34.5208016,12.2910592 34.722029,12.4633645 34.6210547,12.8383819 C34.6059085,12.9366194 34.5864349,13.0340771 34.5611913,13.1299755 C33.4454254,13.7287559 32.3224471,14.3571635 31.0891183,13.4878404 C30.3714796,12.9826194 30.0418706,13.8020442 29.5211318,13.9618749" id="Fill-17" fill="#FEFEFE"></path>
                <path d="M43.9611043,11.5832041 C43.2362532,11.1808985 42.5178932,11.0312034 41.8204494,11.6510347 C41.1316605,11.9020859 40.779693,11.7874756 41.1287755,10.9087965 C42.3952816,10.2811686 42.4796673,8.75303114 43.2102884,7.71686037 C43.7194873,7.13367321 44.2351774,6.1762483 44.6635969,7.78858927 C44.787651,8.25638646 45.2434778,8.58228517 45.1929907,9.13584517 C45.2088581,9.48435408 45.3300272,9.7689307 45.6257376,9.94903262 C46.0505509,10.1922872 46.8915225,9.98801572 46.7992031,10.7396099 C46.737176,11.2495088 46.0433384,11.4038819 45.4959135,11.4342887 C44.9838296,11.4639158 44.4522721,11.2947292 43.9611043,11.5832041" id="Fill-19" fill="#FEFEFE"></path>
                <path d="M44.7236766,9.35196748 C44.1849066,7.20555805 44.1849066,7.20555805 43.2105047,7.7170163 C43.1282828,7.00986289 43.7932706,6.76426937 43.994498,6.23176023 C44.5224493,5.6992511 45.1117064,5.26342006 45.7485656,4.89308062 C46.2736319,4.58823278 46.768406,4.5632836 47.26318,4.94843662 C47.7781488,5.34840321 47.9454777,6.02437015 47.7053031,6.50386226 C47.0475277,7.8175927 46.3803762,9.22098426 44.7236766,9.35196748" id="Fill-21" fill="#FEFEFE"></path>
                <path d="M39.9847368,4.53833442 C39.9508383,4.29274089 39.9919493,3.9029099 39.8693376,3.82806235 C39.4531793,3.57389255 39.4091834,4.05026602 39.3211915,4.30209684 C38.82209,5.73199691 38.3727544,7.18216819 37.8556218,8.60427164 C37.5260129,9.51023886 37.1610629,10.4395959 36.0323146,10.4536299 C37.7265189,8.76800065 37.9205338,6.28009928 38.8826746,4.20307976 C39.357975,3.17782426 39.7683633,2.11748397 40.7485352,1.50856796 C40.8855717,1.37992374 41.0471306,1.32846605 41.2252781,1.28948295 C41.8231901,1.15772007 42.4831292,0.976058832 42.6922903,1.83602599 C42.9230886,2.78409496 42.1088031,2.76538307 41.6068166,3.00941727 C41.0269357,3.40626522 40.8545582,4.14772376 40.4160413,4.66463966 C40.2465487,4.72623295 40.1022997,4.68413121 39.9847368,4.53833442" id="Fill-23" fill="#FEFEFE"></path>
                <g id="Group-27" transform="translate(38.947226, 0.294868)">
                    <mask id="mask-2" fill="white">
                        <use xlink:href="#path-1"></use>
                    </mask>
                    <g id="Clip-26"></g>
                    <path d="M2.13149513,2.3556707 C2.33849242,1.47777132 3.55451137,2.62075578 3.46147077,1.74363605 C3.35400528,0.731634801 2.37239093,1.39668647 1.80116495,1.2134659 C2.2562705,0.63651604 2.77845183,0.221735867 3.48671434,0.681736435 C4.17261827,1.12770309 4.3817793,1.84733109 4.26998633,2.67533212 C4.11996739,3.78557077 3.66846806,4.73909737 2.93351949,5.53279327 C2.28800528,5.9998108 2.06874682,7.06326973 1.09434493,7.06872737 C0.95442341,6.80987959 0.814501894,6.55103181 0.674580379,6.29218404 C0.968127064,5.68950533 1.57469405,5.36438628 1.84660338,4.74299568 C2.25987673,3.98984221 2.62266292,3.23357009 2.13149513,2.3556707" id="Fill-25" fill="#FEFEFE" mask="url(#mask-2)"></path>
                </g>
                <path d="M44.7236766,9.35196748 C45.7435169,9.02372978 46.3580176,8.13101682 47.0677226,7.37396503 C47.5718728,6.83677793 47.8683045,6.19901443 47.4088714,5.49342034 C46.8845264,4.68880918 46.1906888,4.87125008 45.5156035,5.27979296 C45.0049621,5.58931876 44.5008119,5.91365815 43.994498,6.23176023 C44.0334452,6.11091263 44.0377727,5.93860733 44.1171096,5.87623437 C45.1052152,5.08955543 45.8956996,3.44836697 47.4326725,4.71141937 C48.429433,5.53162378 48.1106428,6.96932047 46.6926752,8.50525457 C46.441682,8.7773566 46.1286617,8.98318736 45.4982936,9.50712021 C46.8434154,9.59210336 47.1174885,8.3384069 47.9447564,8.52006814 C47.7514628,10.6961047 46.3443139,10.3008161 45.0395819,10.1222735 C44.704203,9.97569706 44.6847294,9.67786618 44.7236766,9.35196748" id="Fill-28" fill="#FEFEFE"></path>
                <path d="M34.1993428,12.3452457 C33.5365187,12.4427035 32.9458191,12.5674494 32.6969896,11.5507702 C32.0897014,9.07066543 32.0500329,9.08236036 30.2296107,10.7601929 C29.8639395,10.5426672 29.3965728,10.5060231 29.1621682,10.0561582 C29.4124402,9.78561547 29.6627122,9.5142931 29.9129842,9.24375039 C30.5758083,8.91317371 30.713566,8.42588498 30.2887528,7.77096891 C31.0662548,7.02093409 31.6829192,7.19401905 32.0247893,8.22005421 C32.3760356,9.27337755 33.1982548,10.0491412 33.2379233,11.3238886 C33.2768705,12.584602 34.1106296,11.4260243 34.5541953,11.5866346 C34.8455782,12.0630081 34.5080356,12.1963303 34.1993428,12.3452457" id="Fill-30" fill="#FEFEFE"></path>
                <path d="M33.562195,14.7899538 C33.3227417,15.1376831 33.0832884,15.486192 32.6548689,16.1083623 C33.5008892,15.8619891 34.0757214,15.6460227 34.6678635,15.534531 C35.4569054,15.3848359 35.9069622,15.702938 35.9228296,16.6681596 C35.9307633,17.1453127 35.3162627,17.9694154 36.1990664,18.0606359 C36.869103,18.1292461 37.3783019,17.5179911 37.4771124,16.6985664 C37.5773655,16.5293797 37.687716,16.5208034 37.8088851,16.6728375 C37.9098594,17.2942281 37.7259419,17.8010084 37.2975225,18.2220259 C36.9080502,18.6048399 36.5769988,19.1209761 35.9408608,18.9104674 C35.2910191,18.6960604 35.2008635,18.1159919 35.272988,17.5211098 C35.4489717,16.0724978 34.8950556,15.8643281 33.7901084,16.4030745 C33.241241,16.6712782 32.4659027,16.9379226 32.281264,16.1231758 C32.0843641,15.2538527 32.7161747,14.7743606 33.562195,14.7899538" id="Fill-32" fill="#FEFEFE"></path>
                <path d="M41.1289919,10.9091084 C41.1037483,11.4346006 41.4867294,11.5156854 41.8199445,11.6505669 C41.1340406,12.466873 40.2714317,12.9455855 39.2927023,13.2044332 C39.3165034,13.0820263 39.3705968,12.854365 39.3604993,12.8512464 C37.1585386,12.1246014 38.4784168,10.8272439 38.91477,9.67646279 C39.1289797,10.368023 38.8368755,11.034634 38.8101894,11.754262 C39.7896401,12.0980929 40.2238295,10.7180912 41.1289919,10.9091084" id="Fill-34" fill="#FEFEFE"></path>
                <path d="M45.0395097,10.1225074 C46.3117858,10.2324397 47.3236924,9.79115107 47.9446843,8.52030204 L47.9417993,8.52186137 C48.2072175,8.30121703 48.5094191,8.26613224 48.6890091,8.5764377 C49.056844,9.21108256 48.5187953,9.59701524 48.2656383,10.0554565 C47.0676505,11.3442377 45.7297411,12.1722388 43.9612486,11.583594 C44.6687899,10.8647456 45.8033081,11.689628 46.4769509,10.6082368 C46.0802662,10.3158636 45.3683974,10.7041352 45.0395097,10.1225074" id="Fill-36" fill="#FEFEFE"></path>
                <path d="M51.1211191,1.47862894 C51.5935345,1.42171362 51.9613694,1.62130709 51.8236116,1.93707019 C51.3367713,3.04964783 50.5073396,3.87920818 49.5213978,4.46473432 C49.1968376,4.65731083 48.9732517,4.20666621 49.1117307,3.89168277 C49.5754912,2.83991876 50.3666969,2.09612123 51.1211191,1.47862894" id="Fill-38" fill="#FEFEFE"></path>
                <path d="M29.5211318,13.9618749 C30.1038977,13.1892298 30.5820831,12.489873 31.6617867,13.433264 C32.5683916,14.2254006 33.5802982,13.1923485 34.5611913,13.1299755 C33.6257367,14.1871972 32.5070858,14.6760452 31.2759207,13.9065189 C30.4486528,13.389603 30.1154376,14.1365191 29.5737827,14.3711974 C29.5557516,14.2347566 29.5384417,14.0983157 29.5211318,13.9618749" id="Fill-40" fill="#FEFEFE"></path>
                <path d="M16.2320498,12.0440623 C16.3561039,12.0432827 16.4794368,12.0417233 16.6034909,12.0409437 C16.4289497,13.6603016 15.888016,15.3428122 17.2958861,16.6861697 C15.6846249,15.8347789 15.455269,14.8321336 16.2320498,12.0440623" id="Fill-42" fill="#FEFEFE"></path>
                <path d="M34.1993428,12.3452457 C34.3176269,12.0926353 34.4359111,11.8400248 34.5541953,11.5866346 C34.9083265,11.3199902 35.2624578,11.0541255 35.616589,10.7874811 C35.6952047,11.2638546 35.9685566,11.463448 36.3825512,11.6622619 C36.9718083,11.9452792 36.9155512,12.3928051 36.3399977,12.7241615 C35.8675823,12.5510765 35.3994943,12.4801273 34.9472737,12.7919921 C34.839087,12.8091446 34.730179,12.8247379 34.621271,12.8379921 C34.4806283,12.6742631 34.3399855,12.5097544 34.1993428,12.3452457" id="Fill-44" fill="#FEFEFE"></path>
                <path d="M40.0412103,7.36328366 C40.7473091,6.98124929 41.0725905,6.06748546 41.8803848,5.82812923 C41.1930384,7.27362254 39.9827894,8.20765759 38.9557367,9.31945557 C38.7862441,8.32304756 39.7368449,8.05250485 40.0412103,7.36328366" id="Fill-46" fill="#FEFEFE"></path>
                <path d="M48.2658547,10.0556124 C48.1064595,9.55740841 49.4162403,8.69588192 47.9420157,8.5220173 C48.21681,7.94506743 48.6344108,7.40476168 49.1133175,8.1508982 C49.7516192,9.14574688 48.9517586,9.62290001 48.2658547,10.0556124" id="Fill-48" fill="#FEFEFE"></path>
                <path d="M30.2883922,7.77120281 C30.5978062,7.89672839 31.2050945,7.67374506 31.1993245,8.03316924 C31.1870633,8.80893291 30.5790539,9.12703499 29.9126235,9.24398429 C30.2119402,8.65300051 29.925606,8.48537319 29.4322744,8.46744096 C29.7171662,8.23510169 30.0027792,8.00354208 30.2883922,7.77120281" id="Fill-50" fill="#FEFEFE"></path>
                <path d="M37.8091736,16.6730714 C37.6988231,16.685546 37.5884727,16.6941223 37.4774009,16.6988003 C37.2285714,15.0162897 37.5358218,13.6705931 39.2920532,13.2051349 C38.5866756,14.2553396 37.5185119,15.1246627 37.8091736,16.6730714" id="Fill-52" fill="#FEFEFE"></path>
                <path d="M45.3897463,35.0078364 C45.5462564,33.6800721 45.9414986,32.4653587 46.8235812,31.4829846 C46.7983376,32.8731219 46.216293,33.9981742 45.3897463,35.0078364" id="Fill-54" fill="#FEFEFE"></path>
                <path d="M34.947418,12.7919141 C35.4018023,12.5260494 35.8201244,11.3978785 36.3401419,12.7240835 C35.8807089,13.0211347 36.2954248,14.1734751 35.3094829,13.9543901 C35.5373963,13.4398132 35.8633991,12.8901515 34.947418,12.7919141" id="Fill-56" fill="#FEFEFE"></path>
                <g id="Group-60" transform="translate(50.487145, 21.345742)" fill="#FEFEFE">
                    <path d="M8.02219093,17.1742381 C6.81554817,17.1391534 6.3070705,16.7235935 6.3503452,15.3521681 C6.42679716,12.9032498 6.42823965,10.4473146 6.34962395,7.99839631 C6.30202179,6.51469957 7.03841286,6.32836035 8.13326265,6.28781793 C9.35649405,6.24259754 9.48343315,6.98483574 9.4553046,8.01165057 C9.4199636,9.30121148 9.44737091,10.5923317 9.44664966,11.8826723 C9.44664966,13.0443686 9.41202991,14.2068447 9.45674709,15.366202 C9.50002179,16.4889153 9.32475927,17.2124416 8.02219093,17.1742381 M12.2248851,0.34757331 C9.22522747,0.322624127 6.22484858,0.323403789 3.22446969,0.344454662 C1.42712733,0.356929254 0.749878349,1.07421828 0.725356022,3.05066139 C0.690736265,5.96893618 0.716701083,8.88799063 0.714537348,11.8070451 C0.713094858,14.595896 0.69722747,17.3855265 0.718143572,20.1743774 C0.735453451,22.5024481 1.47761448,23.3288898 3.65865913,23.360856 C6.47872679,23.4029577 9.2995157,23.3959407 12.1195834,23.360856 C14.056126,23.3366864 15.0932762,22.191363 15.0983249,20.1174621 C15.1127498,14.5389807 15.116356,8.96127886 15.1033736,3.3827974 C15.0983249,1.27147276 14.2371585,0.364725874 12.2248851,0.34757331" id="Fill-58"></path>
                </g>
                <path d="M41.0281618,5.34021676 C40.8103459,6.08557361 40.3242268,6.47852325 39.6224555,6.58689627 C38.8572146,5.72069181 39.7061199,5.18896234 39.9845204,4.53872425 C40.0840522,4.55431749 40.1843053,4.55509715 40.2838371,4.54106323 C40.6971104,4.62838537 40.8348682,5.01431805 41.0281618,5.34021676" id="Fill-61" fill="#FEFEFE"></path>
                <path d="M23.7695641,8.53230884 C23.8099539,9.14512315 23.64551,9.71193741 23.3382597,10.1953278 C23.0173057,10.7005488 22.7143828,11.4482446 21.9484207,10.9523796 C21.2170783,10.4791248 21.2141934,9.87956474 21.7875831,9.19580118 C22.0191027,8.91902118 22.055165,8.448885 22.2888483,8.17522365 C22.6840905,7.71522308 21.5351474,6.47088256 22.8766629,6.64630651 C23.7479268,6.76013716 23.719077,7.75888415 23.7695641,8.53230884" id="Fill-63" fill="#FEFEFE"></path>
                <path d="M29.1618076,10.0563921 C29.604652,10.1366973 30.1816479,9.9799852 30.2299713,10.7596472 C29.4726641,11.5463261 29.4091946,13.0237856 28.0986926,13.2608028 C27.3262392,13.1633451 27.1654016,12.6347342 27.5974273,12.0757166 C28.1167237,11.403648 28.315066,10.4282908 29.1618076,10.0563921" id="Fill-65" fill="#FEFEFE"></path>
                <path d="M45.2682165,7.74952821 C44.9753911,7.69495187 44.704203,7.59281615 44.7900311,7.29186663 C44.95159,6.71959473 45.3489959,6.34145867 45.8993058,6.24010262 C46.126498,6.19800087 46.4135535,6.36017056 46.3270041,6.6650184 C46.1640027,7.23884961 45.7391894,7.56396866 45.2682165,7.74952821" id="Fill-67" fill="#FEFEFE"></path>
                <path d="M41.0281618,5.34021676 C40.4554934,5.4275389 40.3588465,4.99638583 40.2845583,4.54106323 C40.5492552,3.91109635 40.8139521,3.28112947 41.078649,2.65038293 C42.8745488,3.58675697 41.4313378,4.45218177 41.0281618,5.34021676" id="Fill-69" fill="#FEFEFE"></path>
                <path d="M28.372405,35.0072127 C27.7579043,34.9900601 27.0712792,35.0095517 27.206152,34.0263979 C27.3352548,33.0830069 27.4246892,31.625039 28.3385065,31.6710391 C29.1996729,31.7147002 29.1592832,33.2896174 29.4398475,34.1846693 C29.6908407,34.9861618 28.9133387,34.9885008 28.372405,35.0072127 M36.9155512,42.6440018 C36.4640518,41.6818989 36.3219666,40.553728 36.0161587,39.5082013 C34.3933576,33.9702623 32.7337731,28.4440182 31.1585742,22.8897062 C30.8527663,21.8114337 30.363041,21.4075688 29.3684442,21.490213 C28.6529693,21.5502469 27.9288394,21.5245181 27.2097582,21.4941113 C26.2411263,21.4527892 25.604267,21.9159084 25.2898042,22.8912655 C24.7806053,24.4739794 24.3067474,26.0691678 23.7816811,27.6456443 C22.0629544,32.8007693 20.8909314,38.1531488 18.9500613,43.2264093 C18.8065336,43.600647 18.5526553,44.0692239 18.9854023,44.1986478 C20.3875024,44.6181059 21.8465809,44.4621735 23.2659909,44.3163767 C24.1963969,44.2204783 24.2966499,43.1882058 24.5108597,42.382815 C24.8902345,40.9544743 25.5314212,39.9198628 27.1491736,40.1748123 C27.736267,40.2675921 28.3536526,40.2465412 28.9457947,40.170914 C30.2988502,39.997829 31.2444023,40.6083044 31.4694307,42.0062383 C31.8192345,44.1791562 32.9761114,44.7685807 34.4979382,44.3982412 C35.1037839,44.3982412 35.4059855,44.3717327 35.7031384,44.4029192 C37.0165254,44.5424787 37.6908894,44.2961055 36.9155512,42.6440018" id="Fill-71" fill="#FEFEFE"></path>
            </g>
        </g>
    </g>
</svg>