<?xml version="1.0" encoding="UTF-8" standalone="no"?>
<svg width="113px" height="28px" viewBox="0 0 113 28" version="1.1" xmlns="http://www.w3.org/2000/svg" xmlns:xlink="http://www.w3.org/1999/xlink">
    <!-- Generator: Sketch 3.8.3 (29802) - http://www.bohemiancoding.com/sketch -->
    <title>logo sandoichi</title>
    <desc>Created with Sketch.</desc>
    <defs>
        <polygon id="path-1" points="0.104743724 25.258106 25.5935056 25.258106 25.5935056 0.0759605792 0.104743724 0.0759605792"></polygon>
    </defs>
    <g id="Page-1" stroke="none" stroke-width="1" fill="none" fill-rule="evenodd" opacity="0.735121269">
        <g id="Desktop" transform="translate(-406.000000, -2028.000000)">
            <g id="logo-sandoichi" transform="translate(406.356788, 2028.762647)">
                <path d="M98.7841549,18.4899589 C98.8129751,20.3968209 98.8358007,22.3036829 98.8738435,24.2102947 C98.8874466,24.8815101 98.650429,25.1818565 97.9933275,25.1791057 C93.709718,25.1605997 89.4254167,25.2088652 85.1420377,25.1565984 C82.4654445,25.124088 80.6343219,23.0979378 80.2299163,19.9101647 C80.1570588,19.3367307 80.0639118,18.7665477 79.9802178,18.1948642 C79.4206441,16.5898491 79.5797318,14.8995567 79.4909654,13.2400241 C79.4649119,12.7523676 79.5278553,12.2592093 79.4460059,11.7703024 C79.4374751,11.63826 79.4407029,11.5074681 79.4520005,11.3759258 C79.3879043,9.30576147 79.8414195,7.28811395 79.9788344,5.23595536 C80.1462224,2.73890399 82.8020649,0.366142505 85.2538602,0.329380707 C86.1293037,0.316376534 86.9918358,0.382647802 87.8555207,0.634978782 C90.015194,1.26618135 90.4758567,2.15146546 91.1071352,4.50772165 C91.7612393,6.94850496 91.6143714,9.33026934 91.5415138,11.7615496 C91.4912513,13.4340864 91.5004738,13.4343364 90.0214192,13.859723 C89.6767292,13.9082385 89.3387254,13.8044552 88.9942659,13.7964527 C88.0328228,13.7741955 87.5112918,13.243025 87.4545736,12.1886867 C87.4188365,11.5249737 87.3171587,10.8742648 87.1728269,10.2250565 C86.9789243,9.35327672 86.4098976,8.97440513 85.6801691,8.9291406 C84.9407571,8.883626 84.2868836,9.24174092 84.0655441,10.0542517 C83.5094288,12.0939063 83.5868976,14.1738238 84.1181123,16.1869698 C84.396631,17.2423085 85.3559991,17.6074257 86.3105254,17.7184613 C88.2128916,17.9392822 90.1295527,17.8582562 92.0379136,17.9820459 C94.0205154,18.2806418 96.030093,17.6766979 98.0043945,18.1933637 C98.2713852,18.2631361 98.6340591,18.0550694 98.7841549,18.4899589" id="Fill-1" fill="#FEFEFE"></path>
                <path d="M41.3017294,11.7072572 C41.3229411,16.3665025 41.2964265,21.0274983 41.5664145,25.6802415 C41.6069934,26.3787156 41.298271,26.373464 40.8203162,26.3724636 C39.2861573,26.3692126 37.7499233,26.3684624 36.2187617,26.4559904 C35.4309317,26.501255 35.0977698,26.2764328 34.9077868,25.3801452 C33.8923922,20.5916084 32.6139264,15.8783458 31.2838148,11.1823387 C31.2298633,10.9917776 31.1496278,10.8099692 31.001607,10.6354132 C30.7798065,14.3133435 30.8996987,17.9830212 30.9411998,21.6514485 C30.9534196,22.7325455 30.9637949,23.8158932 31.0394192,24.8927388 C31.0795369,25.4659227 30.8946263,25.5699561 30.4106769,25.5984652 C27.4806962,25.7707705 27.4689376,25.7840248 27.5231196,22.6790283 C27.6404756,15.9396155 27.6911992,9.20020259 27.507672,2.46179005 C27.4859991,1.66803532 27.6158055,1.38744527 28.4278445,1.42845843 C29.9557782,1.50598331 31.4936261,1.47072199 33.0217904,1.37644174 C33.7512883,1.33142729 33.9989118,1.56200129 34.1448574,2.33424912 C35.046585,7.10453004 36.064977,11.8460517 37.3014804,16.5295548 C37.6157363,17.0294652 38.0236003,17.4878623 37.9062443,18.069549 C37.8213975,17.6096514 37.8615153,17.0659769 38.1093693,16.5505615 C38.0962273,14.6902145 38.0830853,12.8298675 38.0699433,10.9695204 C38.0226781,10.591149 38.2391757,10.2552912 38.2156584,9.87917049 C38.1866076,9.41577178 38.4420702,9.18769858 38.8204223,9.13993325 C39.5035772,9.05365556 40.1740512,9.24396664 40.8406056,9.35400195 C41.2493919,9.42127354 41.2865124,9.84465942 41.2023573,10.2507898 C41.0999878,10.7446983 41.1318053,11.2328549 41.3017294,11.7072572" id="Fill-3" fill="#FEFEFE"></path>
                <path d="M92.2947596,3.99625751 C92.3049043,3.74742765 92.3196603,3.49884787 92.3242715,3.25001802 C92.3687699,0.864752522 92.3683088,0.864502442 94.5185291,0.854249152 C95.2473353,0.850748028 95.980061,0.899263598 96.7035643,0.831992009 C97.5349705,0.754967289 97.7646101,1.16434867 97.7420151,1.98461192 C97.6954416,3.68690823 97.71942,5.39170534 97.6645463,7.09375158 C97.6361872,7.98028609 97.9485985,8.36440936 98.7742407,8.4386832 C101.649348,8.69726619 101.885443,8.46994323 101.762554,5.32843504 C101.712291,4.04277243 101.673326,2.75660967 101.619605,1.47094707 C101.577412,0.467124913 101.873915,-0.0305347994 102.934961,0.00147547352 C105.770411,0.0867528413 105.7741,0.0402379134 105.756347,3.14673487 C105.715537,10.3390431 105.843499,17.5288505 106.034174,24.7171574 C106.056308,25.5489243 105.963853,25.9523038 105.076881,25.887533 C103.936291,25.8045064 102.78671,25.8475202 101.641509,25.8632752 C100.813791,25.8747789 100.578849,25.404378 100.649631,24.5931176 C100.797652,22.896323 100.802263,21.1960274 100.713727,19.4949815 C100.563171,18.0640222 100.539884,16.6188084 100.627267,15.1938511 C100.675224,14.4093493 100.439128,14.2215391 99.851887,14.2065343 C99.6250141,14.2007824 99.3914549,14.2197885 99.1685016,14.271055 C98.533073,14.4171018 97.7740632,13.9059378 97.2804301,14.4030973 C96.7964807,14.8902537 97.324698,15.6472466 97.2695937,16.290203 C97.238929,16.6515689 97.1301038,16.9264071 96.814234,17.0777057 L96.8188452,17.0752049 C95.575886,17.7884338 94.2058872,17.3913063 92.9013679,17.5641118 C92.1658755,17.661393 91.8848205,16.9939288 91.9111046,16.2164293 C91.9615976,14.7289519 91.9728952,13.2402241 91.9964125,11.7522466 C91.9728952,10.5916241 91.9680534,9.43025142 91.9233243,8.26937887 C91.8677589,6.8286665 91.869834,5.3897047 92.2947596,3.99625751" id="Fill-5" fill="#FEFEFE"></path>
                <path d="M0.41346666,3.9856291 C0.911710931,2.5516689 1.97736804,1.91471448 3.23093311,1.65688174 C5.16834477,1.25825381 7.12120409,1.24900084 9.04870159,1.78292219 C10.7216588,2.24657099 11.4387063,3.16786665 11.5477621,5.03396554 C11.6104749,6.10931064 11.970382,7.45224163 11.5224002,8.19823103 C11.0243865,9.02699701 9.69127761,8.29601241 8.75035449,8.48657357 C7.63120702,8.71314628 7.27153045,8.32652221 7.38842533,7.09762782 C7.46289683,6.31487661 7.51846225,5.33806313 6.35320239,5.27979443 C5.18125624,5.22127565 4.97282828,6.07029812 4.89259274,7.06011578 C4.7330439,9.02474628 5.27002257,9.67870616 7.12189577,9.7617328 C7.38957814,9.77373666 7.65726051,9.78023874 7.92471232,9.79174243 C10.7318035,9.91353152 11.890377,10.9196044 12.0407034,13.3658895 C12.2583538,16.9035248 11.1523484,18.7778763 8.41765366,19.2595309 C5.9815366,19.6886686 3.52466897,19.4761004 1.07540988,19.2867897 C0.531514354,19.2447762 0.391793841,19.0152025 0.419000145,18.4205116 C0.468570954,17.343416 0.463729154,16.2535662 0.36504866,15.1817222 C0.286657613,14.3319495 0.591229886,14.233918 1.26262615,14.2731806 C2.86872036,14.3669607 4.47873412,14.3842163 6.08736452,14.4139758 C6.5074483,14.4217283 6.93375726,14.3969704 7.34784644,14.3251973 C7.76308842,14.2529241 8.22444279,14.1573935 8.16818569,13.5121864 C8.12115106,12.9700124 7.7208956,12.8702304 7.33378216,12.8419713 C6.72256256,12.7977071 6.10811509,12.8117116 5.49528155,12.7947062 C1.02053615,12.669666 -0.326406485,11.0426439 0.0639348155,6.19208721 C0.123650348,5.4510994 0.294266156,4.72086505 0.41346666,3.9856291" id="Fill-7" fill="#FEFEFE"></path>
                <path d="M112.419378,24.2093694 C112.320928,24.8010593 111.938426,24.7340378 111.601345,24.7290362 C110.379367,24.7115306 109.157158,24.6507611 107.936102,24.6725181 C107.271392,24.6842718 107.055817,24.4089335 107.083484,23.7114596 C107.365,16.6536946 107.358314,9.59392895 107.136975,2.53491352 C107.104235,1.48982813 107.346094,0.996169698 108.411982,1.09295076 C109.360052,1.17897837 110.323109,1.08869939 111.278558,1.04968687 C111.889086,1.02492893 112.200114,1.23499634 112.178672,1.97223294 C111.970935,9.11852638 112.150774,16.2598182 112.436901,23.3996096 C112.448429,23.6894526 112.424912,23.9807961 112.419378,24.2093694" id="Fill-9" fill="#FEFEFE"></path>
                <path d="M73.2830862,21.8106496 C73.5911169,19.6264487 73.4882863,17.4249921 73.4845973,15.2312881 C73.4776805,10.9626682 73.4389461,6.69354814 73.3538687,2.42617863 C73.3365766,1.55564925 73.6374599,1.35058344 74.3397514,1.352334 C75.2945083,1.3548348 76.2511096,1.3143218 77.2040219,1.24379917 C78.0757765,1.17952854 78.4419088,1.50163191 78.3911852,2.51720784 C78.3148692,4.0479491 78.3672067,5.58594268 78.3646705,7.1209353 C78.5922351,7.81840914 78.6982936,8.54239148 78.7711512,9.27462648 C78.8292528,9.95684542 78.6664761,10.6360634 78.75017,11.3197828 C78.6125246,13.5517491 78.7748402,15.7847157 78.7273444,18.0146814 C78.6846905,20.0188246 78.7404864,22.0197167 78.8004325,24.0186082 C78.8313278,25.0549408 78.2650678,25.3105228 77.5996662,25.1964862 C76.3746908,24.9864188 75.1591684,25.0139276 73.9399571,25.0879514 C73.2761694,25.1284644 73.0246263,24.9271498 73.1269958,24.1709071 C73.2323626,23.3926573 73.1920143,22.5949013 73.2830862,21.8106496" id="Fill-11" fill="#FEFEFE"></path>
                <g id="Group-15" transform="translate(1.152810, 1.220642)">
                    <mask id="mask-2" fill="white">
                        <use xlink:href="#path-1"></use>
                    </mask>
                    <g id="Clip-14"></g>
                    <path d="M18.8946632,14.3400521 C16.0954111,14.5863812 16.0942583,14.6123895 16.5710603,11.6674444 C16.6499125,11.1797879 16.7718797,10.700134 16.8076168,10.5318299 C17.0022111,9.40346783 17.6166586,9.68955964 18.0563401,9.63229126 C18.4960217,9.5747728 18.8206528,9.69506141 18.9108025,10.3102588 C19.0662012,11.3688486 19.307369,12.4144341 19.54577,13.4562685 C19.6935602,14.102976 19.5206388,14.2850345 18.8946632,14.3400521 M25.5228568,23.7813321 C24.4728779,19.0928274 23.5220406,14.3780643 22.5453803,9.67030346 C22.1840898,7.92799431 22.1967708,7.89923508 23.8337603,7.94424952 C24.5676388,7.96450602 24.9379212,7.84121646 24.8724416,6.86990474 C24.7467854,5.0058065 24.7251126,3.13045465 24.7341045,1.2601044 C24.7384852,0.371069086 24.5226792,0.0307098556 23.6361687,0.0807259071 C19.8844654,0.292543885 16.1279204,0.319052393 12.3732198,0.176256565 C11.6425691,0.148497657 11.4731061,0.410331687 11.4982374,1.16307326 C11.5618724,3.07218595 11.5736311,4.98454968 11.5480387,6.89491276 C11.5369718,7.71917729 11.718424,8.18132561 12.565739,7.98726333 C13.2431298,7.83221357 13.3533384,8.21508644 13.2507384,8.81702962 C12.7831588,11.5564088 12.450458,14.327298 11.7200379,17.0061577 C11.2254826,18.8194897 10.7839566,19.2043632 9.01439398,19.275386 C6.75488734,19.3661651 4.49215283,19.4059279 2.23103225,19.393674 C0.00265146188,19.3816701 0.00288202378,19.3411571 0.167733784,21.8284553 C0.29569564,22.2283337 0.208543241,22.6422165 0.237824602,23.0478467 C0.352874992,24.650361 0.360252973,24.6463597 1.82801004,25.0717462 C1.97372517,25.1140098 2.10952613,25.1875334 2.26538597,25.1710281 C4.64086525,25.3418329 7.01450004,25.2322977 9.38652089,25.0922528 C12.6130042,24.9019417 13.4566302,24.1029353 14.1139621,20.6825876 C14.1374795,20.5607985 14.1736777,20.4357584 14.1669914,20.3147195 C14.1107343,19.2893905 14.6613161,19.0598168 15.4675911,19.0838245 C16.4255758,19.1123337 17.3849438,19.0778226 18.3433897,19.091577 C20.2116328,19.1185857 20.1980296,19.1275886 20.5367251,21.0224467 C20.7608312,22.2778496 20.4772401,24.042916 21.2837456,24.6576133 C22.0718062,25.2583061 23.5663085,24.7418903 24.7497827,24.7691491 C25.4384711,24.7851542 25.7430434,24.7653979 25.5228568,23.7813321" id="Fill-13" fill="#FEFEFE" mask="url(#mask-2)"></path>
                </g>
                <path d="M50.9728098,21.057683 C48.0889416,21.5005751 47.9773496,21.4320531 47.9054143,18.378073 C47.8514628,16.0948403 47.8971141,13.8088566 47.8768246,11.5241234 C47.8682938,10.5490605 48.2104477,10.14243 49.1711991,10.1091693 C52.7598951,9.98487942 53.3879458,10.5498107 53.6623144,14.4358078 C53.7443945,15.5989311 53.7831289,16.764055 53.6212744,17.9236772 C53.558331,18.3740717 53.4691036,18.8202149 53.3916348,19.2683587 C53.0278081,20.5920335 52.0472283,20.89263 50.9728098,21.057683 M56.5985203,17.1826894 L56.5994425,17.1934428 C56.6084344,16.739047 56.7767446,16.3154111 56.8293127,15.8735192 C57.1009146,13.5957883 57.3220235,11.3170569 56.4754002,9.10659755 C56.4062316,8.36360911 56.3704945,7.61461874 56.2618999,6.87838246 C55.7521275,3.41877218 55.2375133,1.41412883 52.4832209,0.779675219 C50.9315393,0.599117273 49.3787048,0.510588862 47.8228731,0.720156118 C44.3762032,0.772422891 40.9299945,0.837693839 37.4833246,0.866453068 C36.8100839,0.871954834 36.3782414,0.977738783 36.4091367,1.87127554 C36.4653938,3.48979497 36.5117368,5.11306592 36.4557102,6.73008487 C36.4222787,7.69814554 36.8250704,7.8279372 37.5598712,7.79442644 C39.0488399,7.72615453 40.5428811,7.77041874 42.0295442,7.67313752 C42.8777814,7.61786978 43.0543919,8.00149289 43.0730674,8.82150606 C43.1918068,14.0114216 43.2286967,19.2018374 43.1254049,24.3915029 C43.1046544,25.4405896 43.3887066,25.7476881 44.3420801,25.7281819 C46.7496075,25.6789161 49.1589794,25.7399356 51.5676595,25.756691 C53.2982572,25.7606923 54.6687171,25.0672197 55.4724559,23.3311626 C56.3681889,21.397292 56.757608,19.3473841 56.5985203,17.1826894" id="Fill-16" fill="#FEFEFE"></path>
                <path d="M67.3423821,19.3581876 C64.3287075,19.9063635 62.0609006,19.7155523 61.9647563,15.5352107 C61.9398556,14.4498624 61.91703,13.3742672 62.0643591,12.3026733 C62.3059879,10.5458595 63.1064989,9.75285495 64.7294241,9.62281322 C68.4244091,9.3267182 69.4096001,10.3592996 69.3136864,14.4186023 C69.2883246,15.4976986 69.3902329,16.5910495 68.9673824,17.648889 C68.7412012,18.5424258 68.2069893,19.2008871 67.3423821,19.3581876 M71.6506618,20.1524425 C71.8869878,17.9699921 72.1097106,15.7837904 72.044231,13.5925872 C71.9344835,9.92766105 72.2139246,6.19746393 70.7828268,2.70834418 C70.470646,1.82005911 69.7962525,1.3451567 69.0379344,1.02980549 C66.3705637,-0.0790503694 63.6713755,0.11426167 60.9738013,0.895262314 C60.1606094,1.13058784 59.4797601,1.66600967 59.1491344,2.48327195 C58.6329063,3.75918142 58.1093002,5.03584114 57.8577571,6.43278946 C57.6795328,7.42210695 57.8137198,8.43018047 57.5930721,9.39549027 C56.8481266,12.6552864 57.4468958,15.8518123 57.9322286,19.0563407 L57.9326898,19.0688447 C57.6730771,22.5734694 59.43457,25.1595494 62.5478474,25.8910341 C63.3704922,26.0843462 64.2307187,26.2031343 65.032613,26.1858788 C66.6419351,26.1513677 68.3552406,26.264404 69.6869661,24.9159712 C70.9338449,23.6148036 71.4523786,21.9850306 71.6506618,20.1524425" id="Fill-18" fill="#FEFEFE"></path>
            </g>
        </g>
    </g>
</svg>