<?xml version="1.0" encoding="UTF-8" standalone="no"?>
<svg width="112px" height="25px" viewBox="0 0 112 25" version="1.1" xmlns="http://www.w3.org/2000/svg" xmlns:xlink="http://www.w3.org/1999/xlink">
    <!-- Generator: Sketch 3.8.3 (29802) - http://www.bohemiancoding.com/sketch -->
    <title>logo taberna española</title>
    <desc>Created with Sketch.</desc>
    <defs>
        <polygon id="path-1" points="0.0770015272 21.9179997 6.20704164 21.9179997 6.20704164 0.109416403 0.0770015272 0.109416403 0.0770015272 21.9179997"></polygon>
    </defs>
    <g id="Page-1" stroke="none" stroke-width="1" fill="none" fill-rule="evenodd" opacity="0.735121269">
        <g id="Desktop" transform="translate(-667.000000, -2027.000000)">
            <g id="logo-taberna-española" transform="translate(667.207037, 2027.203323)">
                <path d="M85.0072707,24.7441888 L81.9933719,24.7441888 C83.2522763,23.7236319 83.002892,22.4080953 83.0043017,21.1640966 C83.0096588,16.4203718 83.013747,11.6766469 83.0016232,6.93292206 C82.9980988,5.5963807 83.303873,4.17292839 81.9843495,3.01370974 C83.0312279,3.01370974 83.8428194,3.02314665 84.654129,3.0094479 C85.0193946,3.00320736 84.9744236,3.28905461 85.0160112,3.52436869 C85.4724874,6.10490873 85.9306552,8.68514436 86.3847349,11.2662932 C86.6469479,12.7567172 86.8950634,14.2500332 87.1713739,15.737413 C87.2029522,15.9072775 87.1238654,16.2704465 87.4846197,16.1929725 C87.7695297,16.1317848 87.6382822,15.8635937 87.6385641,15.6946424 C87.6467407,12.1433176 87.6288369,8.59168845 87.655763,5.04051587 C87.6621069,4.19636847 87.0970802,3.74370089 86.6859979,3.06865694 L89.6447756,3.06865694 C88.3462573,4.24248759 88.7002448,5.74995891 88.6954517,7.15438518 C88.6767021,12.7351036 88.6948878,18.3161265 88.6724728,23.896845 C88.671345,24.1804091 88.983886,24.7096375 88.3641611,24.777979 C87.8192937,24.8379491 87.3786067,24.8225761 87.2507426,24.0277441 C86.8058264,21.2619666 86.3024056,18.5069958 85.8219637,15.7477631 C85.3938235,13.2894464 84.9661061,10.8311296 84.5405034,8.37220404 C84.5096299,8.1942725 84.4890476,7.96672104 84.2923879,7.97341821 C84.0001472,7.98315954 84.1003803,8.26992004 84.1002393,8.44678612 C84.0953052,13.2666151 84.1047505,18.0864441 84.0889613,22.906121 C84.0862828,23.6875585 84.6844386,24.0686882 85.0072707,24.7441888" id="Fill-1" fill="#FDFDFC"></path>
                <path d="M41.4050263,3.04343602 L44.3198199,3.04343602 C44.3240491,3.0959479 44.3481558,3.16307177 44.3285603,3.18529419 C43.5923903,4.02304884 43.5265551,5.03919166 43.5320531,6.13615711 C43.5620807,12.097092 43.5498159,18.0584835 43.5357184,24.0195706 C43.5350136,24.294611 43.7860896,24.7828953 43.175669,24.7842652 C42.6963549,24.7851785 42.2497469,24.8570208 42.1255482,24.1334224 C41.289427,19.2619948 40.4330055,14.3945245 39.582364,9.52598885 C39.5086342,9.10421956 39.4339176,8.68260249 39.3494737,8.26326853 C39.3217017,8.12536779 39.3119745,7.93038891 39.1109445,7.96448358 C38.9312017,7.99492525 38.9317656,8.16996483 38.9278183,8.32186874 C38.9231661,8.49919145 38.9258447,8.67697078 38.9258447,8.85444569 C38.9257037,13.0400226 38.9379685,17.2255995 38.9176681,21.410872 C38.9117472,22.6101214 38.8084127,23.8099797 40.0207954,24.7302313 L36.9004607,24.7302313 C38.1490739,23.6175884 37.8741732,22.1982457 37.8765697,20.856377 C37.8858741,15.7831211 37.8590889,10.7095608 37.9015222,5.63660936 C37.9098398,4.63477413 37.5984266,3.84070326 36.9138533,3.00979798 C37.8719176,3.00979798 38.6601073,3.01466865 39.448297,3.00766707 C39.811166,3.00431848 39.8309024,3.26642123 39.8817943,3.55942227 C40.5769407,7.55976163 41.2812505,11.5581223 41.9845734,15.5567873 C42.015024,15.7301526 42.0560476,15.901387 42.0946747,16.073078 C42.1232926,16.2000198 42.2208471,16.2077824 42.3148772,16.2056515 C42.4225819,16.2033683 42.488981,16.1341135 42.4951839,16.0204139 C42.5049112,15.8433956 42.5046292,15.6656163 42.5046292,15.4881414 C42.5044883,12.7231248 42.5198545,9.9581083 42.4965937,7.19339617 C42.4846108,5.76294228 42.8384574,4.22518151 41.4050263,3.04343602" id="Fill-3" fill="#FEFDFC"></path>
                <path d="M26.4685137,11.3537826 L26.4685137,16.3061851 C26.1258041,15.8323605 26.0004776,15.3352481 25.8493526,14.8672075 C25.6739801,14.3238238 25.3091375,14.3043411 24.893121,14.3449807 C24.3529059,14.3976448 24.6189252,14.8535088 24.6168106,15.1046525 C24.5955234,17.7679939 24.6177974,20.4316397 24.5932678,23.0948288 C24.5886156,23.6070099 24.7350884,23.7724603 25.1846568,23.7143168 C25.3924535,23.6875281 25.6070171,23.7083806 25.8177743,23.721775 C26.5375913,23.7674375 26.9337303,23.4473433 27.0919039,22.6464231 C27.3776597,21.1995307 27.744194,19.7713599 28.2088468,18.3504952 C28.2088468,20.0107836 28.2082829,21.6710721 28.2089877,23.3313606 C28.2095516,24.7820582 28.2101155,24.7820582 26.8535157,24.7820582 L22.2177025,24.7820582 C22.2177025,24.6809919 22.1989529,24.6083885 22.2203811,24.5898191 C23.0425457,23.8768753 23.1131741,22.9194848 23.1064073,21.8611803 C23.0739831,16.7373913 23.0942834,11.6132978 23.0903361,6.48920433 C23.0893493,5.26925455 23.3639681,3.95660991 22.0248491,3.15112342 C22.0774327,3.10302559 22.1298753,3.05492775 22.1824589,3.00698213 C23.6246304,3.00698213 25.0668019,3.00713434 26.5089734,3.00682992 C28.2096926,3.0065255 28.2094107,3.0063733 28.2089877,4.86422819 C28.2085648,6.40914275 28.2088468,7.95405731 28.0874675,9.51936779 C27.7410926,8.07217097 27.3978191,6.62421312 27.0473559,5.17823397 C26.8199637,4.24002182 25.5362478,3.64077762 24.7532741,4.09938132 C24.5336355,4.22799736 24.608775,4.45280907 24.608634,4.64169961 C24.6046867,7.2797744 24.603418,9.9178492 24.6139911,12.555924 C24.6148369,12.7709944 24.4716066,13.1248787 24.8563266,13.1437526 C25.1912826,13.1601911 25.5774124,13.26902 25.7653317,12.7909337 C25.9563525,12.3050847 26.1634444,11.8263895 26.3634875,11.3444979 C26.3984492,11.3476943 26.4335519,11.3507384 26.4685137,11.3537826" id="Fill-5" fill="#FEFDFB"></path>
                <path d="M55.414334,24.7808558 C56.5580621,23.7714101 56.3154445,22.4263451 56.3161494,21.1579931 C56.3192509,16.3896105 56.3288371,11.6212279 56.3100875,6.85299746 C56.3047305,5.52741511 56.6838115,4.06986813 55.2355781,3.13454793 C55.2947875,3.09269064 55.3538559,3.05098556 55.4129243,3.00912827 C57.3052281,3.00912827 59.197532,3.01460777 61.0896949,3.00319214 C61.3772833,3.00151785 61.4545375,3.12952506 61.4541145,3.40700084 C61.4503082,5.50153969 61.4519999,7.59623074 61.3251227,9.7110133 C60.9818492,8.23139611 60.6354743,6.75269217 60.2962891,5.27200953 C60.0559271,4.22268529 58.89641,3.64094505 57.9906473,4.11065996 C57.7893354,4.21507487 57.8180942,4.3872225 57.8179532,4.55693479 C57.8164025,7.24539054 57.8159796,9.9339985 57.8210547,12.6224543 C57.8214776,12.8320451 57.7487347,13.1274815 58.0726946,13.1427023 C58.4135715,13.1586842 58.790256,13.2489437 58.9763426,12.7748148 C59.1653897,12.2932276 59.3757241,11.8213818 59.6654271,11.1353789 L59.6654271,16.2092436 C59.6389239,16.2243122 59.6124206,16.2392286 59.5857764,16.2542972 C59.4012405,15.7847345 59.1838574,15.3265875 59.0407681,14.8427172 C58.8723033,14.2731536 58.4743316,14.2996379 58.0773468,14.3523019 C57.6210115,14.4127286 57.8264117,14.8291706 57.825002,15.0787923 C57.8100587,17.7419815 57.8272576,20.4051706 57.8093538,23.0682076 C57.8061114,23.5551221 57.9173404,23.7828257 58.3966545,23.7112878 C58.6041693,23.6803895 58.8205656,23.6883043 59.030054,23.7103746 C59.7704533,23.7887618 60.1433315,23.4258972 60.3036197,22.6462861 C60.6151739,21.1307478 60.9836819,19.6289082 61.4486165,18.1378753 C61.4486165,20.2264781 61.4481936,22.3150808 61.4491804,24.4036835 C61.4493214,24.621037 61.4394532,24.7878573 61.1570808,24.7863352 C59.2429259,24.7758329 57.3286299,24.7808558 55.414334,24.7808558" id="Fill-7" fill="#FDFDF9"></path>
                <path d="M62.8713053,24.7127882 L62.8713053,18.3908151 C63.2144378,19.528268 63.4215297,20.71184 63.8629216,21.8168725 C64.0773442,22.3535591 64.3034677,22.882483 64.7007345,23.2961852 C65.0059448,23.6139962 65.3761444,23.7951242 65.7897643,23.6433724 C66.1861852,23.4980135 66.3216619,23.1109477 66.3742455,22.685221 C66.6120699,20.7579591 66.0281525,18.9924947 65.4438123,17.2317487 C64.7340045,15.0932217 63.7789007,13.0548477 63.1947014,10.8645698 C62.6855006,8.95496407 62.3683075,7.03409493 62.6763373,5.02646705 C62.9760496,3.07317753 64.5875317,2.41776846 65.7866628,3.58809832 C66.4928053,4.27714543 66.7896981,3.41351536 67.370373,3.03771299 L67.370373,6.2386542 L67.370373,9.43107173 C66.9609824,8.29468433 66.6969367,7.11506977 66.2160719,6.01825653 C65.964432,5.44458333 65.7116643,4.86756155 65.2678758,4.43407222 C65.0017155,4.17410039 64.6924169,4.00347485 64.3089657,4.16618556 C63.9532864,4.31702401 63.8534763,4.62113626 63.8086463,4.99967838 C63.6049379,6.71963252 64.1170991,8.295902 64.6282734,9.87217148 C65.4402879,12.3763029 66.5548341,14.7553192 67.2876208,17.2908055 C67.827695,19.1591628 67.972617,21.0629846 67.4852674,22.9762433 C67.2093798,24.0596622 66.5002769,24.7659089 65.7246339,24.7855438 C65.3920745,24.7939152 65.0799565,24.7095918 64.78687,24.5213101 C63.7914474,23.8817307 63.7890509,23.8859925 62.8713053,24.7127882" id="Fill-9" fill="#FDFCFB"></path>
                <path d="M6.9135137,9.7926274 C6.56995827,8.17282634 6.22273751,6.55393853 5.88439815,4.9327676 C5.71663821,4.12971644 5.13765498,3.78115936 4.43940713,4.05376448 C4.21906362,4.1399144 4.24739954,4.30825681 4.2454259,4.47736027 C4.24020983,4.93383306 4.24232445,5.39061026 4.24232445,5.84723525 C4.24218348,11.0728517 4.24077373,16.2986203 4.24331128,21.5243889 C4.24387517,22.6767582 4.02973455,23.9052317 5.14526762,24.7385723 L1.89918341,24.7385723 C1.89918341,24.6749492 1.8808567,24.6032591 1.90186193,24.5854507 C2.70809643,23.8994477 2.79817929,22.9752388 2.79239932,21.9365691 C2.76082098,16.2290611 2.7797116,10.5212487 2.76998434,4.81343627 C2.76956141,4.51510794 2.97284698,4.02362723 2.3930179,4.04950265 C1.93879731,4.06974636 1.38589441,3.82179899 1.22574711,4.63200393 C0.927867499,6.13840979 0.582620378,7.63370443 0.252739502,9.13249987 C0.206358815,9.34346062 0.135730473,9.54802862 0.00772541538,9.74087657 C0.00772541538,7.7006761 0.017452672,5.66017121 0.000112779787,3.62012295 C-0.00355256328,3.17917541 0.0865302913,2.98937162 0.540046008,2.99469892 C2.53681213,3.01783458 4.53414215,3.01220287 6.53119022,2.99896075 C6.87404077,2.99667762 7.03207345,3.05969187 7.02812616,3.49013703 C7.00824872,5.59472163 7.01910377,7.69976285 7.01910377,9.80465186 C6.98386009,9.80069444 6.94875738,9.79658482 6.9135137,9.7926274" id="Fill-11" fill="#FEFDFB"></path>
                <path d="M103.601711,18.1876627 C103.601711,20.2161431 103.598469,22.2444713 103.605095,24.2729518 C103.606081,24.5840656 103.596072,24.7933521 103.207546,24.7890902 C101.424215,24.7694553 99.6407441,24.7804143 97.8630527,24.7804143 C97.8485323,24.6941122 97.8193505,24.6180081 97.8358446,24.6038527 C98.7352634,23.8326131 98.7692383,22.7784182 98.7637403,21.65025 C98.737378,16.2981485 98.7368141,10.9458947 98.7726217,5.59394537 C98.7795294,4.57765034 98.4605036,3.79651718 97.6520135,3.05937224 L101.370645,3.05937224 C99.8692641,4.10276035 100.228045,5.57385387 100.224239,6.92470281 C100.209295,12.226119 100.211692,17.5276874 100.230159,22.8291035 C100.231146,23.1256054 99.9458134,23.7071934 100.563001,23.6901461 C101.141984,23.674012 101.913539,24.0280486 102.17984,23.0831392 C102.622501,21.5123493 103.02301,19.9277083 103.442128,18.3491557 C103.459186,18.2852282 103.483997,18.2235839 103.505143,18.1610262 C103.537427,18.1698543 103.569569,18.1788346 103.601711,18.1876627" id="Fill-13" fill="#FEFEFD"></path>
                <path d="M84.1611122,1.72206984 C84.0722981,1.45113901 84.1871925,1.27807814 84.2504902,1.09177514 C84.692305,-0.208692843 84.8463904,-0.265162134 85.9104677,0.490095606 C86.9008152,1.19314589 86.9928717,1.17838168 87.7702063,0.193137151 C87.8567648,0.384919649 87.7236847,0.530887438 87.6743435,0.690858394 C87.1964392,2.24186129 87.0209256,2.31020283 85.7589198,1.44976913 C84.9349225,0.887815975 84.781542,0.910342808 84.1611122,1.72206984" id="Fill-15" fill="#F8F5F2"></path>
                <path id="Fill-17" fill="#726143"></path>
                <path d="M0.702251536,9.83906617 C0.764421394,7.98258115 1.29533224,6.23827367 1.58151095,4.4355182 C1.66623676,4.45576191 1.7508216,4.47615782 1.83554742,4.49640153 C1.45773513,6.27739122 1.08006382,8.05822869 0.702251536,9.83906617" id="Fill-19" fill="#696145"></path>
                <path d="M88.3546594,0.0621314408 C88.3480336,0.803842639 88.094843,1.30826105 87.7277447,1.76762579 C87.8530713,1.21282642 87.9580975,0.649960016 88.3546594,0.0621314408" id="Fill-21" fill="#5D5643"></path>
                <path d="M19.3518836,21.2650107 C19.3411695,21.5677531 19.3131155,21.8726264 19.2630695,22.1706503 C19.0580922,23.3930354 18.6405251,23.7260672 17.4819947,23.7196745 C17.0976976,23.7175436 17.0167781,23.5864922 17.0217122,23.2032316 C17.0403209,21.7849544 17.0290429,20.3662205 17.0296068,18.9476389 C17.0301707,17.554476 17.045255,16.1608566 17.0214303,14.7681503 C17.0138176,14.3293337 17.1342101,14.2030008 17.5369749,14.2399874 C18.3972027,14.3189835 18.8907552,14.7259886 19.1490209,15.7521772 C19.606061,17.569088 19.4171549,19.4216156 19.3518836,21.2650107 M17.4936956,4.0744496 C18.3740828,4.10260814 18.8790543,4.48997834 19.1500078,5.51190508 C19.5572838,7.04768714 19.4567688,8.62030362 19.3537163,10.1850053 C19.3056439,10.9134743 19.2188034,11.6395081 18.8884996,12.3051151 C18.6891614,12.7067929 18.4141197,12.9949233 18.0113548,13.1206473 C17.2286631,13.3649417 17.028761,13.2005567 17.02862,12.3351001 C17.028338,11.09445 17.028479,9.85379993 17.028761,8.61299762 C17.0290429,7.27112897 17.0420126,5.9289559 17.0211483,4.58739167 C17.0149454,4.19028014 17.1202536,4.06242514 17.4936956,4.0744496 M21.0655724,18.0012075 C20.9670311,16.2900814 20.7699484,14.5841304 19.0906574,13.5503315 C20.1094818,12.8804626 20.6095192,11.9220067 20.817034,10.7939908 C21.0982786,9.26581915 21.1281652,7.71999134 20.8316954,6.18938436 C20.5642663,4.80824596 19.9716085,3.65222369 18.6221984,3.21782111 C17.3014061,2.79255103 15.9490355,3.09118378 14.5433764,3.07946374 C15.750966,3.99880206 15.4766291,5.30368408 15.477616,6.52013306 C15.4815633,11.6685799 15.4574566,16.8170267 15.4973524,21.9651691 C15.505529,23.0108403 15.3986701,23.9193718 14.6047004,24.6076579 C14.5882064,24.6219655 14.6155555,24.6953299 14.6283842,24.7801099 C15.6321243,24.7801099 16.6405165,24.7834585 17.6489088,24.7793489 C19.4122208,24.7721951 20.2108426,24.1199824 20.6860685,22.2930258 C21.051475,20.8879907 21.1486066,19.4435336 21.0655724,18.0012075" id="Fill-23" fill="#FEFDFC"></path>
                <path d="M32.9255371,13.0044515 C32.1570838,13.4656427 31.6903165,13.177208 31.6901755,12.2564998 C31.6898936,11.0429427 31.6900345,9.82953792 31.6904575,8.6159809 C31.6907394,7.30135754 31.7166788,5.98582094 31.6781927,4.67241525 C31.6622625,4.13359775 31.8577945,4.03466234 32.284384,4.07819392 C33.0484671,4.15582017 33.5782501,4.56876137 33.7548914,5.36709407 C34.2351924,7.53865033 34.2084072,9.71568609 33.6999113,11.8819151 C33.5858627,12.3680685 33.333377,12.7597005 32.9255371,13.0044515 M36.1205884,24.263454 C35.6033521,23.7139819 35.4157148,23.0801864 35.4440507,22.2832236 C35.4998767,20.7139557 35.4357332,19.1401215 35.4680164,17.5693316 C35.5015684,15.9420723 35.1932566,14.5021815 33.7457281,13.5265261 C34.5877702,12.9797938 35.0638418,12.2014003 35.3092789,11.2794745 C35.8258103,9.33912268 35.832859,7.37517858 35.3285924,5.43619665 C35.0167563,4.23664279 34.2774848,3.38960343 33.1174037,3.13617656 C31.8511686,2.85961402 30.5637874,3.05413627 29.1789926,3.11243206 C30.3786876,3.91000372 30.1398764,5.11884228 30.1401583,6.24701043 C30.1411451,11.4434029 30.1214087,16.6399475 30.1563704,21.8360355 C30.1635601,22.9196066 30.1135141,23.9046989 29.2477882,24.6226656 C29.238061,24.6307327 29.2748554,24.7042493 29.2797895,24.7185569 L32.6335784,24.7185569 C32.2784631,24.1036352 31.6777697,23.7750174 31.6832677,23.0011903 C31.7025813,20.2384569 31.7007486,17.4752668 31.6810121,14.7123812 C31.6777697,14.2697594 31.8477853,14.2212049 32.1769613,14.2416008 C33.1859174,14.3041584 33.9211007,15.260179 33.9285723,16.5878922 C33.9405552,18.742249 33.9239202,20.8969101 33.9382996,23.051419 C33.9446434,23.9949585 34.2779077,24.6191648 34.8750767,24.7162738 C35.3659507,24.7960309 35.8769841,24.73256 36.3818146,24.73256 C36.38548,24.4820251 36.2278702,24.3773058 36.1205884,24.263454" id="Fill-25" fill="#FEFEFB"></path>
                <g id="Group-29" transform="translate(90.505779, 2.882521)">
                    <mask id="mask-2" fill="white">
                        <use xlink:href="#path-1"></use>
                    </mask>
                    <g id="Clip-28"></g>
                    <path d="M4.51557578,10.6039587 C4.48991838,13.5088547 4.5963543,16.4276017 4.06065031,19.3015994 C3.99129075,19.6734443 3.89655572,20.0364612 3.71667196,20.3662966 C3.58020842,20.6166793 3.40525878,20.8162245 3.10963476,20.8040478 C2.77862609,20.7906535 2.6128398,20.5355523 2.49893222,20.2519882 C2.13958762,19.357612 2.03357462,18.3974819 1.95899899,17.442679 C1.65717209,13.5775006 1.62559375,9.70592954 1.8328266,5.83481505 C1.90007155,4.57711761 2.01214647,3.31607159 2.36909449,2.10160131 C2.494562,1.67450473 2.67994378,1.22320703 3.12965318,1.22412028 C3.56893044,1.22503353 3.7895559,1.65654415 3.90966637,2.08577165 C4.39617018,3.82383858 4.46863119,5.61944026 4.51106459,7.41534636 C4.53601711,8.47760831 4.51557578,9.54108792 4.51557578,10.6039587 M5.8919121,4.88944911 C5.71555271,3.61455212 5.46771913,2.35700689 4.81359636,1.24101541 C3.94364129,-0.243015822 2.41166886,-0.275283988 1.50379158,1.19093887 C1.29754554,1.5239707 1.12076323,1.88896627 0.988669902,2.26339877 C0.552212128,3.50070029 0.355975299,4.7997984 0.258843708,6.11092096 C-0.00900828545,9.72815195 0.00452528894,13.3450785 0.396857972,16.9522638 C0.541779997,18.2843911 0.789895528,19.6017542 1.44472316,20.7682788 C2.3098851,22.3096926 3.98099959,22.2967549 4.85504294,20.7565588 C5.13656948,20.2605118 5.33759945,19.7189546 5.47730541,19.1560882 C6.15793142,16.4134463 6.17357962,13.6042893 6.20205651,9.86681374 C6.22715001,8.81870718 6.16258359,6.84639162 5.8919121,4.88944911" id="Fill-27" fill="#FDFDFC" mask="url(#mask-2)"></path>
                </g>
                <path d="M73.2685585,12.1538505 C73.0562505,13.2057622 72.4593635,13.5264652 71.4764876,13.369234 C71.0992393,13.3089595 71.1784671,13.0541627 71.1777622,12.8186965 C71.173392,11.4492781 71.1756476,10.0798597 71.1759295,8.7105936 C71.1763524,7.39186062 71.1984855,6.07267101 71.1654974,4.75485128 C71.1523867,4.23049358 71.2787001,4.04601708 71.7856452,4.07037041 C72.735533,4.1158807 73.1584572,4.35865299 73.3290366,5.3653589 C73.711783,7.62473936 73.722779,9.90329808 73.2685585,12.1538505 M74.8089894,5.17220652 C74.5662309,4.15012758 74.0248879,3.29395572 72.9639121,3.11191455 C71.5781304,2.87401293 70.1812118,3.05590189 68.7221233,3.07355805 C69.9556522,4.05332308 69.7064089,5.43004744 69.7076777,6.72625358 C69.7123298,11.2902204 69.7326302,15.8543394 69.6962587,20.4180018 C69.6844168,21.902033 70.1483647,23.5370549 68.5948231,24.7492421 L72.3534915,24.7492421 C71.1783261,23.4649082 71.1779032,23.4649082 71.1774802,21.7659588 C71.1769163,19.5600034 71.1922826,17.3538959 71.1656384,15.1483972 C71.1591535,14.6104929 71.3074589,14.4716789 71.7988969,14.4795938 C73.3969864,14.505317 74.2105516,13.8760877 74.7117168,12.20758 C75.4106695,9.88031462 75.3659805,7.51712807 74.8089894,5.17220652" id="Fill-30" fill="#FEFCFB"></path>
                <path d="M10.4624116,18.384879 C10.2061196,18.3611345 9.94503436,18.3612867 9.68860132,18.3832047 C9.15205149,18.4291716 8.76747242,18.3390643 8.96836141,17.7475827 C9.22549932,15.3924632 9.46614319,13.1827027 9.70876071,10.9732465 C9.7272284,10.806274 9.69536811,10.5858763 9.93995927,10.5849631 C10.2073883,10.5838976 10.1250591,10.8330627 10.1431039,10.9804003 C10.4223748,13.2612422 10.6902268,15.5439105 10.96837,17.8250568 C11.0220813,18.2650911 10.8568589,18.421409 10.4624116,18.384879 M10.7201134,24.7668221 L14.1329708,24.7668221 C13.5116951,24.1747317 13.0535272,23.6917747 12.9682375,22.9222094 C12.5479918,19.1282645 12.1109702,15.3366028 11.6732436,11.544941 C11.3630992,8.85831178 11.0346281,6.17411786 10.7346338,3.48627094 C10.6902268,3.08931161 10.543895,3.0013352 10.2003396,2.99646453 C9.82379609,2.99113724 9.73202154,3.15354353 9.69184374,3.52599732 C9.08381972,9.15694453 8.49440436,14.7907837 7.82153196,20.4127506 C7.64517256,21.8865839 7.94897311,23.5558527 6.53739311,24.7281612 L9.12639409,24.7281612 C8.82456718,24.1879739 8.27279208,23.8837094 8.36259298,23.1875085 C8.49214876,22.1849122 8.61493775,21.180185 8.70220111,20.1725659 C8.74195599,19.7133533 8.95313614,19.4812356 9.33193525,19.580171 C9.96152841,19.7444038 11.0419588,19.0813843 11.1623512,20.0413623 C11.3557685,21.5842981 12.2859198,23.2932933 10.7201134,24.7668221" id="Fill-32" fill="#FEFDFC"></path>
                <path d="M48.8064677,18.3820327 C48.620522,18.3631589 48.4316159,18.3788364 48.2441195,18.3794452 C48.0566231,18.380054 47.8687037,18.3724436 47.6816303,18.3817283 C47.3501987,18.398319 47.2095059,18.247785 47.2512344,17.8812673 C47.5171128,15.5505011 47.777775,13.2189739 48.0384373,10.8874467 C48.0552133,10.736456 48.0452041,10.5787682 48.2508862,10.5789204 C48.4555816,10.5790726 48.447264,10.7338685 48.4653088,10.8868379 C48.7368261,13.1903588 49.0077796,15.4940319 49.2884603,17.7961829 C49.3399161,18.2174955 49.2241758,18.4243466 48.8064677,18.3820327 M49.0359745,24.7441888 L52.3426779,24.7441888 C51.890008,24.1516417 51.3551499,23.7493551 51.2862132,23.0067307 C51.1765349,21.8252896 51.0166695,20.6491758 50.880347,19.4704745 C50.2654152,14.1506411 49.6449854,8.83156878 49.0495081,3.50930006 C49.0049601,3.11051424 48.8988061,3.00092424 48.5487659,3.00138086 C48.2193079,3.00183749 48.0616982,3.04491244 48.0199696,3.47566202 C47.8396629,5.33762654 47.6043761,7.19335051 47.398694,9.05257528 C46.9957882,12.6949206 46.6549113,16.3465507 46.1746104,19.9768716 C45.9608927,21.5922586 46.3134705,23.4122137 44.893291,24.7265326 L47.4290035,24.7265326 C47.1108236,24.1834533 46.5721591,23.8594017 46.6556162,23.1755297 C46.7778413,22.1724768 46.907397,21.1701849 47.0107315,20.1648489 C47.0514732,19.7691072 47.2196561,19.4904138 47.5790007,19.5788468 C48.2204357,19.7365347 48.9915675,19.1465752 49.5127511,19.9634773 C49.5378446,20.0028992 49.5510962,20.0602818 49.5499684,20.108684 C49.5114823,21.661209 50.5920536,23.3172357 49.0359745,24.7441888" id="Fill-34" fill="#FDFDFC"></path>
                <path d="M77.6275677,18.4528553 C76.5121756,18.492125 76.4749583,18.3548331 76.6256603,17.3245349 C76.9290379,15.2510008 77.1000402,13.1549399 77.3388514,11.0699902 C77.357883,10.9031698 77.2443984,10.6014929 77.5373439,10.5911428 C77.8800534,10.5791183 77.7638903,10.906214 77.7879969,11.1022583 C78.0586684,13.3092791 78.3139737,15.5185831 78.5897202,17.7248428 C78.7209677,18.7750803 77.9702773,18.3205862 77.6275677,18.4528553 M80.6213071,23.1367622 C80.387853,21.0769269 80.1511564,19.017396 79.913614,16.9581695 C79.3949679,12.462392 78.8671585,7.96783216 78.3674031,3.46977156 C78.3180619,3.02517102 78.1130847,3.01953932 77.8129495,2.99975223 C77.4891305,2.97844307 77.3659186,3.09153386 77.3375827,3.45881256 C77.2693509,4.34085984 77.1503682,5.21818866 77.0528137,6.0976484 C76.5395247,10.7220419 76.0743081,15.353437 75.4877122,19.9668715 C75.2818891,21.5848461 75.6362996,23.4140858 74.138443,24.78046 C74.9721676,24.78046 75.644899,24.7821343 76.3177714,24.7787857 C76.4242074,24.7781769 76.5306433,24.7550412 76.6568157,24.7399726 C75.9526469,23.4055622 75.946585,23.4048011 75.9907101,23.0277811 C76.058096,22.4507593 76.1302751,21.8741941 76.208516,21.2986944 C76.4461994,19.5502773 76.4480321,19.5811756 78.0932072,19.5591054 C78.7048966,19.5510384 78.8663127,19.866414 78.9119885,20.4111677 C78.9606248,20.9903204 78.9645721,21.583324 79.0906035,22.1432985 C79.3079865,23.1084515 79.2228378,23.9437708 78.479478,24.6137919 C78.4646757,24.627034 78.4958311,24.6997896 78.5100695,24.7652392 L81.6629694,24.7652392 C81.2095947,24.1862387 80.6982793,23.8157636 80.6213071,23.1367622" id="Fill-36" fill="#FEFDFC"></path>
                <path d="M107.667465,18.4469496 C106.571245,18.450907 106.566452,18.4504504 106.683743,17.3536371 C106.906624,15.2688396 107.13021,13.1840421 107.371277,11.1016799 C107.391718,10.9252705 107.251166,10.5651456 107.609524,10.5949784 C107.931369,10.6217671 107.793637,10.9484061 107.818167,11.1435372 C108.095182,13.3478183 108.36684,15.5530126 108.627503,17.7595768 C108.754521,18.8343198 107.927704,18.2347712 107.667465,18.4469496 M110.51882,21.9287152 C109.806615,15.8065917 109.094975,9.68446816 108.406172,3.5593005 C108.358523,3.13600913 108.243347,3.02139626 107.868072,2.99521642 C107.422028,2.96386151 107.386502,3.2084603 107.362536,3.57863096 C107.328139,4.10770712 107.239043,4.63236923 107.180679,5.15992331 C106.733084,9.20440309 106.376418,13.2637993 105.808572,17.288492 C105.455007,19.7932323 105.851851,22.4899073 104.393609,24.727522 L106.770865,24.727522 C106.489621,24.1835294 105.931925,23.8912894 106.00213,23.2500357 C106.117448,22.195993 106.244607,21.1433202 106.374867,20.0912562 C106.399115,19.8956685 106.418006,19.63524 106.646808,19.6128654 C107.299239,19.5492423 107.957873,19.5052541 108.605934,19.638893 C108.797941,19.6784672 108.907338,19.9204784 108.899866,20.1189581 C108.842207,21.6660036 109.963238,23.3281186 108.348232,24.7629865 L111.543142,24.7629865 C111.601365,24.71291 111.659587,24.6628334 111.71781,24.6127569 C110.629767,24.0247761 110.636957,22.9444014 110.51882,21.9287152" id="Fill-38" fill="#FDFCFB"></path>
                <path id="Fill-40" fill="#645C40"></path>
            </g>
        </g>
    </g>
</svg>